<svg xmlns="http://www.w3.org/2000/svg" width="127.336" height="111.419" viewBox="0 0 127.336 111.419">
  <path id="Icon_awesome-camera" data-name="Icon awesome-camera" d="M127.336,30.1v71.626A11.941,11.941,0,0,1,115.4,113.669H11.938A11.941,11.941,0,0,1,0,101.731V30.1A11.941,11.941,0,0,1,11.938,18.167H33.824l3.059-8.182A11.921,11.921,0,0,1,48.049,2.25H79.262A11.921,11.921,0,0,1,90.428,9.985l3.084,8.182H115.4A11.941,11.941,0,0,1,127.336,30.1ZM93.512,65.918A29.844,29.844,0,1,0,63.668,95.762,29.868,29.868,0,0,0,93.512,65.918Zm-7.958,0A21.886,21.886,0,1,1,63.668,44.032,21.918,21.918,0,0,1,85.554,65.918Z" transform="translate(0 -2.25)" fill="#00ffc4"/>
</svg>
