<svg xmlns="http://www.w3.org/2000/svg" width="103.917" height="83.121" viewBox="0 0 103.917 83.121">
  <path id="Icon_awesome-code" data-name="Icon awesome-code" d="M45.284,83.043l-9.9-2.874a1.951,1.951,0,0,1-1.331-2.419L56.211,1.409A1.951,1.951,0,0,1,58.63.078l9.9,2.874a1.951,1.951,0,0,1,1.331,2.419L47.7,81.711a1.945,1.945,0,0,1-2.419,1.331ZM26.775,64.826l7.063-7.533a1.948,1.948,0,0,0-.13-2.793L19,41.56l14.71-12.94a1.935,1.935,0,0,0,.13-2.793l-7.063-7.533a1.95,1.95,0,0,0-2.76-.081L.619,40.131a1.935,1.935,0,0,0,0,2.841l23.4,21.935a1.936,1.936,0,0,0,2.76-.081Zm53.123.1,23.4-21.935a1.935,1.935,0,0,0,0-2.841L79.9,18.2a1.966,1.966,0,0,0-2.76.081l-7.063,7.533a1.948,1.948,0,0,0,.13,2.793L84.915,41.56,70.206,54.5a1.935,1.935,0,0,0-.13,2.793l7.063,7.533A1.951,1.951,0,0,0,79.9,64.923Z" transform="translate(0.002 -0.003)" fill="#02f2bb"/>
</svg>
