<svg xmlns="http://www.w3.org/2000/svg" width="107" height="106.988" viewBox="0 0 107 106.988">
  <path id="Icon_awesome-guitar" data-name="Icon awesome-guitar" d="M105.038,11.407,95.592,1.961a6.7,6.7,0,0,0-9.467,0l-14.19,14.19a6.7,6.7,0,0,0,0,9.467L60.607,36.925c-9.488-6.061-20.983-6.04-27.9.878a17.481,17.481,0,0,0-4.284,7.085A10.716,10.716,0,0,1,19.5,52.181,21.216,21.216,0,0,0,6.248,58.2c-9.655,9.634-7.921,26.981,3.825,38.726s29.091,13.459,38.726,3.825A21.22,21.22,0,0,0,54.818,87.48a10.743,10.743,0,0,1,7.294-8.924A17.481,17.481,0,0,0,69.2,74.272c6.918-6.918,6.918-18.412.878-27.9L81.4,35.044a6.7,6.7,0,0,0,9.467,0l14.19-14.19a6.692,6.692,0,0,0-.021-9.446ZM43.469,73.561A10.032,10.032,0,1,1,53.5,63.53,10.034,10.034,0,0,1,43.469,73.561Z" transform="translate(0 -0.002)" fill="#02f2bb"/>
</svg>
