<svg xmlns="http://www.w3.org/2000/svg" width="107.329" height="116.425" viewBox="0 0 107.329 116.425">
  <path id="heimautomatisierung" d="M100.85,94.306V80.951A4.547,4.547,0,0,0,96.3,76.4H85.383V42.2l4.9,4.9a4.548,4.548,0,1,0,6.432-6.431L57.38,1.332a4.547,4.547,0,0,0-6.432,0L11.61,40.67A4.548,4.548,0,1,0,18.042,47.1l4.9-4.9V76.4H12.027a4.547,4.547,0,0,0-4.548,4.548V94.306a11.527,11.527,0,1,0,9.1,0V85.5H49.617v8.808a11.527,11.527,0,1,0,9.1,0V85.5H91.755v8.808a11.527,11.527,0,1,0,9.1,0ZM12.027,107.328a2.431,2.431,0,1,1,2.431-2.431A2.434,2.434,0,0,1,12.027,107.328Zm42.138,0A2.431,2.431,0,1,1,56.6,104.9,2.434,2.434,0,0,1,54.165,107.328ZM60.987,76.4H47.343V62.759H60.987Zm15.3,0H70.082V58.211a4.547,4.547,0,0,0-4.548-4.548H42.8a4.547,4.547,0,0,0-4.548,4.548V76.4H32.042V33.1L54.165,10.979,76.287,33.1ZM96.3,107.328a2.431,2.431,0,1,1,2.431-2.431A2.434,2.434,0,0,1,96.3,107.328Zm0,0" transform="translate(-0.5 0.001)" fill="#02f2bb"/>
</svg>
