<svg xmlns="http://www.w3.org/2000/svg" width="102.677" height="129.206" viewBox="0 0 102.677 129.206">
  <path id="Icon_awesome-raspberry-pi" data-name="Icon awesome-raspberry-pi" d="M93.851,58.682l-.933-1.64c.025-11.706-5.4-16.474-11.731-20.107,1.917-.5,3.885-.908,4.44-3.33,3.3-.833,3.986-2.372,4.314-3.986.858-.58,3.734-2.195,3.431-4.97,1.615-1.11,2.523-2.548,2.044-4.566,1.741-1.892,2.195-3.456,1.463-4.894,2.094-2.6,1.161-3.936.278-5.273,1.564-2.826.177-5.853-4.188-5.348C91.227,2.019,87.443,2.6,86.863,2.6c-.656-.807-1.514-1.514-4.163-1.186C80.985-.126,79.067.152,77.074.883c-2.346-1.842-3.91-.353-5.7.2-2.851-.908-3.507.328-4.894.858-3.1-.656-4.062.757-5.55,2.245l-1.741-.025c-4.693,2.725-7.014,8.275-7.846,11.126-.833-2.851-3.154-8.4-7.846-11.126l-1.741.025c-1.488-1.488-2.447-2.9-5.55-2.245-1.413-.5-2.044-1.766-4.894-.858C30.149.732,29.064-.025,27.8,0a3.74,3.74,0,0,0-2.195.883c-1.993-.757-3.91-1.009-5.626.53-2.649-.328-3.532.353-4.163,1.186-.58,0-4.365-.58-6.105,1.968-4.365-.5-5.727,2.523-4.163,5.348-.883,1.362-1.816,2.7.278,5.273-.732,1.438-.278,3,1.463,4.894-.454,2.018.454,3.456,2.044,4.566-.3,2.775,2.573,4.39,3.431,4.97.328,1.615,1.009,3.128,4.314,3.986.555,2.4,2.523,2.826,4.44,3.33-6.332,3.633-11.757,8.4-11.731,20.107l-.933,1.64C1.59,63.022-4.945,77.024,5.273,88.377a54.949,54.949,0,0,0,2.775,8.931c1.488,11.4,11.227,16.727,13.775,17.357a46.56,46.56,0,0,0,13.169,7.367c5.121,5.2,10.672,7.165,16.222,7.165h.252c5.576,0,11.1-1.968,16.2-7.165a46.213,46.213,0,0,0,13.169-7.367c2.573-.631,12.286-5.954,13.775-17.357a54.951,54.951,0,0,0,2.775-8.931C107.626,77,101.092,63.022,93.851,58.682Zm-5.6-2.018C87.872,61.382,63.3,40.24,67.538,39.534c11.53-1.892,21.091,4.844,20.713,17.13ZM77.4,80.152c-6.181,3.986-15.087,1.413-19.88-5.752s-3.683-16.2,2.5-20.183S75.106,52.8,79.9,59.969,83.583,76.166,77.4,80.152ZM60.272,7.418A3.512,3.512,0,0,0,61,9.335,38.02,38.02,0,0,1,65.242,4.97c0,.833-.429,1.716.631,2.372a12.347,12.347,0,0,1,3.91-3.355c-.807,1.413-.151,1.842.3,2.422a14.483,14.483,0,0,1,4.894-3.1c-.656.782-1.564,1.564-.605,2.472A14.27,14.27,0,0,1,80.2,3.532c-.706.782-2.195,1.589-1.287,2.372a24.06,24.06,0,0,1,5.576-1.362c-.984.807-1.791,1.589-.984,2.22,1.791-.555,4.264-1.287,6.66-.656L88.654,7.645c-.177.2,3.557.151,6.03.2a12.041,12.041,0,0,0-2.346,4.592c.252.252,1.463.1,2.624,0-1.186,2.5-3.229,3.1-3.709,4.188.732.555,1.716.4,2.826.025-.858,1.741-2.624,2.952-4.037,4.365.353.252.984.4,2.447.227a22.661,22.661,0,0,1-4.743,3.784c.328.378,1.463.378,2.523.4-1.69,1.64-3.86,2.5-5.9,3.582a3.652,3.652,0,0,0,2.523.53C85.45,30.729,83,31.334,80.732,32.066A2.19,2.19,0,0,0,82.524,33.1c-2.4,1.337-5.853.732-6.812,1.413a2.829,2.829,0,0,0,1.69,1.463c-3.885.227-14.456-.151-16.5-8.149,3.961-4.365,11.2-9.461,23.639-15.793-9.688,3.229-18.417,7.569-25.733,13.5-8.653-4.011-2.725-14.1,1.463-18.114ZM51.593,36.33c6.105-.076,13.649,4.491,13.624,8.754-.025,3.784-5.3,6.837-13.573,6.787-8.1-.1-13.548-3.835-13.523-7.518,0-3,6.61-8.2,13.472-8.023ZM20.562,33.1a2.252,2.252,0,0,0,1.791-1.034c-2.271-.706-4.718-1.337-6.156-2.523a3.521,3.521,0,0,0,2.523-.53c-2.044-1.085-4.213-1.943-5.9-3.582,1.06-.025,2.195,0,2.523-.4A22.661,22.661,0,0,1,10.6,21.243c1.463.177,2.094.025,2.447-.227-1.413-1.413-3.2-2.624-4.037-4.365a3.07,3.07,0,0,0,2.826-.025c-.479-1.06-2.523-1.69-3.709-4.188,1.161.1,2.372.252,2.624,0A12.208,12.208,0,0,0,8.4,7.846c2.472-.025,6.206,0,6.03-.2L12.917,6.106c2.4-.631,4.869.1,6.66.656.807-.631-.025-1.413-.984-2.22A25.771,25.771,0,0,1,24.169,5.9c.883-.782-.58-1.589-1.287-2.372a14.27,14.27,0,0,1,5.828,2.245c.959-.908.05-1.69-.605-2.472A14.108,14.108,0,0,1,33,6.408c.429-.58,1.11-1.009.3-2.422a12.347,12.347,0,0,1,3.91,3.355c1.034-.656.631-1.564.631-2.372a38.02,38.02,0,0,1,4.238,4.365,3.729,3.729,0,0,0,.732-1.917C47,11.429,52.93,21.52,44.327,25.532c-7.316-5.929-16.045-10.268-25.733-13.5,12.438,6.307,19.678,11.429,23.639,15.793-2.018,8.023-12.614,8.376-16.5,8.149a2.91,2.91,0,0,0,1.69-1.463c-1.009-.706-4.44-.1-6.862-1.413Zm15.162,6.08C39.963,39.887,15.39,61,15.011,56.311,14.633,44.024,24.22,37.263,35.724,39.181ZM9.638,86.308c-5.979-4.743-7.9-18.594,3.179-24.8C19.5,59.742,15.087,88.7,9.638,86.308ZM32.6,111.082c-3.355,1.993-11.555,1.186-17.357-7.039-3.91-6.913-3.406-13.926-.656-16,4.112-2.472,10.47.858,15.364,6.459C34.21,99.553,36.153,108.459,32.6,111.082Zm-6.66-30.2c-6.181-3.986-7.291-13.018-2.5-20.183s13.7-9.738,19.88-5.752,7.291,13.018,2.5,20.183C41,82.3,32.091,84.87,25.935,80.884ZM51.719,125.16c-7.417.3-14.683-5.979-14.582-8.149-.1-3.2,9.032-5.7,14.961-5.55,5.979-.252,14.027,1.892,14.052,4.768C66.276,119,58.884,125.286,51.719,125.16Zm14.86-31.511c.05,7.493-6.61,13.573-14.835,13.623s-14.935-6-14.986-13.472v-.151c-.05-7.493,6.61-13.573,14.835-13.624s14.935,6,14.986,13.472Zm20.738,10.773c-6.383,8.729-15.036,9.057-18.24,6.635-3.355-3.128-.807-12.841,3.81-18.165,5.273-5.878,10.924-9.713,14.86-6.711C90.395,88.78,91.959,98.569,87.317,104.422Zm5.777-18.467c-5.424,2.372-9.839-26.566-3.179-24.8C100.991,67.386,99.074,81.237,93.094,85.955Z" transform="translate(0 0.01)" fill="#00ffc4"/>
</svg>
