<?xml version="1.0" encoding="utf-8"?><svg version="1.1" id="Layer_1" xmlns="http://www.w3.org/2000/svg" xmlns:xlink="http://www.w3.org/1999/xlink" x="0px" y="0px" viewBox="0 0 122.88 100.38" style="enable-background:new 0 0 122.88 100.38" xml:space="preserve"><style type="text/css">.st0{fill-rule:evenodd;clip-rule:evenodd;}</style><g><path class="st0" d="M112.29,98.55c0,1.01-0.82,1.84-1.84,1.84H11.93c-1.01,0-1.84-0.82-1.84-1.84V51.67 c-2.06,0.79-3.97,0.8-5.57,0.27c-1.25-0.42-2.3-1.17-3.07-2.15c-0.77-0.97-1.26-2.16-1.41-3.46C-0.18,44.3,0.43,42,2.15,39.85l0,0 c0.09-0.11,0.19-0.21,0.3-0.3L60.05,0.48c0.65-0.6,1.65-0.66,2.37-0.1l57.71,38.99l0,0c0.08,0.06,0.15,0.13,0.22,0.2 c2.32,2.5,2.9,5.27,2.34,7.62c-0.28,1.15-0.83,2.2-1.59,3.05c-0.76,0.86-1.73,1.52-2.84,1.92c-1.76,0.64-3.84,0.61-5.96-0.39 C112.29,67.37,112.29,82.96,112.29,98.55L112.29,98.55z M38.59,59.98l-0.08,0.07c-0.42,0.34-0.93,0.48-1.42,0.44 c-0.5-0.04-0.99-0.26-1.35-0.66l-0.07-0.09c-0.34-0.42-0.48-0.93-0.44-1.42c0.04-0.52,0.28-1.02,0.7-1.38 c3.88-3.33,8.02-5.85,12.3-7.53c4.31-1.69,8.77-2.54,13.26-2.5c4.42,0.04,8.87,0.93,13.21,2.72c4.22,1.73,8.34,4.3,12.28,7.74 c0.42,0.37,0.65,0.87,0.69,1.39l0,0.02c0.03,0.51-0.13,1.03-0.5,1.45c-0.37,0.42-0.87,0.65-1.39,0.69l-0.02,0 c-0.51,0.03-1.03-0.13-1.45-0.5c-3.57-3.12-7.29-5.45-11.09-7.02c-3.89-1.61-7.84-2.41-11.77-2.45c-3.98-0.03-7.95,0.73-11.8,2.25 C45.82,54.71,42.1,56.98,38.59,59.98L38.59,59.98z M61.44,77.96c1.28,0,2.44,0.52,3.28,1.36c0.84,0.84,1.36,2,1.36,3.28 s-0.52,2.44-1.36,3.28c-0.84,0.84-2,1.36-3.28,1.36c-1.28,0-2.44-0.52-3.28-1.36c-0.84-0.84-1.36-2-1.36-3.28s0.52-2.44,1.36-3.28 C59,78.48,60.16,77.96,61.44,77.96L61.44,77.96z M53.04,74.99c-0.03,0.03-0.06,0.06-0.1,0.08c-0.42,0.32-0.93,0.45-1.43,0.4 c-0.49-0.05-0.97-0.28-1.32-0.68c-0.03-0.03-0.06-0.07-0.09-0.11c-0.32-0.42-0.45-0.93-0.4-1.43c0.05-0.51,0.3-1.01,0.74-1.36 c1.72-1.4,3.52-2.46,5.36-3.18c1.85-0.72,3.75-1.09,5.66-1.1c1.89-0.01,3.78,0.34,5.64,1.06c1.81,0.7,3.59,1.75,5.32,3.16 c0.43,0.35,0.68,0.85,0.74,1.36c0.05,0.51-0.09,1.05-0.44,1.48l-0.01,0.01c-0.35,0.43-0.84,0.68-1.36,0.73 c-0.51,0.05-1.05-0.09-1.48-0.44l0,0c-1.37-1.11-2.76-1.94-4.16-2.49c-1.42-0.56-2.84-0.83-4.24-0.82c-1.42,0-2.85,0.29-4.26,0.85 C55.79,73.06,54.4,73.89,53.04,74.99L53.04,74.99z M45.97,67.96c-0.42,0.37-0.95,0.54-1.46,0.51c-0.52-0.03-1.02-0.26-1.39-0.68 c-0.37-0.42-0.54-0.95-0.5-1.46c0.03-0.52,0.26-1.02,0.68-1.39c2.91-2.58,5.92-4.53,8.98-5.82c3.06-1.29,6.18-1.92,9.32-1.87 c3.1,0.05,6.19,0.77,9.25,2.18c2.98,1.37,5.92,3.4,8.8,6.11c0.41,0.38,0.62,0.9,0.64,1.41c0.02,0.52-0.17,1.04-0.55,1.45 c-0.38,0.41-0.9,0.62-1.41,0.64c-0.52,0.02-1.04-0.17-1.45-0.55c-2.52-2.37-5.07-4.15-7.62-5.34c-2.58-1.2-5.16-1.82-7.73-1.86 c-2.6-0.04-5.21,0.5-7.79,1.6C51.11,64.01,48.51,65.71,45.97,67.96L45.97,67.96z M107.67,95.76V49.62c0-0.12,0.01-0.24,0.03-0.35 L61.62,18.58l-46.96,30.7c0.04,0.15,0.06,0.31,0.06,0.47v46.01C45.7,95.76,76.68,95.76,107.67,95.76L107.67,95.76z"/></g></svg>