<svg xmlns="http://www.w3.org/2000/svg" width="68.199" height="109.116" viewBox="0 0 68.199 109.116">
  <path id="Icon_awesome-walking" data-name="Icon awesome-walking" d="M44.318,20.456A10.228,10.228,0,1,0,34.09,10.228,10.231,10.231,0,0,0,44.318,20.456ZM64.455,52.227,59.49,49.713l-2.067-6.265A23.233,23.233,0,0,0,35.646,27.275c-7.671-.021-11.912,2.152-19.881,5.37a20.326,20.326,0,0,0-10.59,9.845l-1.428,2.9a6.841,6.841,0,0,0,3.026,9.141,6.727,6.727,0,0,0,9.056-3.047l1.428-2.9A6.773,6.773,0,0,1,20.772,45.3L26.483,43,23.244,55.935a13.685,13.685,0,0,0,3.175,12.529L39.183,82.4a13.752,13.752,0,0,1,3.175,5.9l3.9,15.619a6.819,6.819,0,1,0,13.233-3.3L54.76,81.655a13.631,13.631,0,0,0-3.175-5.9l-9.7-10.59,3.665-14.639,1.172,3.516a13.59,13.59,0,0,0,6.755,7.884l4.965,2.514A6.727,6.727,0,0,0,67.5,61.39a6.9,6.9,0,0,0-3.047-9.163ZM15.68,82.209a13.223,13.223,0,0,1-3.026,4.581L2,97.466a6.818,6.818,0,1,0,9.631,9.653L24.288,94.461a13.851,13.851,0,0,0,3.026-4.581l2.877-7.2c-11.784-12.849-8.246-8.907-10.1-11.443L15.68,82.209Z" transform="translate(-0.002)" fill="#02f2bb"/>
</svg>
