<svg xmlns="http://www.w3.org/2000/svg" width="20.374" height="35.999" viewBox="0 0 20.374 35.999">
  <path id="Icon_simple-apache" data-name="Icon simple-apache" d="M23.739,0a1.164,1.164,0,0,0-.606.171,13.175,13.175,0,0,0-2.622,2.644l-.234.288c-.3.369-.6.768-.921,1.189Q17.742,6.45,16.332,8.749L16.3,8.8l-.066.108q-1.381,2.254-2.563,4.621a38.4,38.4,0,0,0-1.65,3.836q-.2.565-.375,1.089c-.093.3-.183.6-.267.894-.2.7-.372,1.4-.513,2.1l0,0-.019.091a21,21,0,0,0-.349,2.538l-.008.089a5.305,5.305,0,0,0-1.542-1.323,7.469,7.469,0,0,1,1.506,3.462,3.394,3.394,0,0,1-1.7-.291A3.4,3.4,0,0,0,10.2,26.9a4.174,4.174,0,0,0-2.019,1.007,4.317,4.317,0,0,1,2.392-.44Q9.1,31.7,7.812,36a.8.8,0,0,0,.546-.531c.165-.554,1.255-4.179,2.965-8.946l.147-.41L11.512,26q.27-.749.561-1.53l.134-.355,0-.007L11.3,22.316,12.21,24.1q.268-.713.547-1.444l.078-.2.08-.205.061-.156-.061.157-.08.2-.078.2q-.281.731-.547,1.444l.159.312.141-.015.015-.042q.344-.938.681-1.83l.007-.021q-.349.923-.687,1.851l-.015.042-.1.274c-.177.487-.356.983-.534,1.49l-.007.022-.076.215c-.12.342-.225.649-.464,1.348a2.715,2.715,0,0,1,1.011,1.191,2.16,2.16,0,0,0-.7-1.483c1.944.087,3.62-.4,4.486-1.826a3.4,3.4,0,0,0,.212-.4,1.862,1.862,0,0,1-1.8.659,5.222,5.222,0,0,0,2.631-2.149q.227-.368.421-.754a4.236,4.236,0,0,1-4,1.3h0l-.061-.01a7.718,7.718,0,0,0,4.128-2.322,10.3,10.3,0,0,0,1.409-1.959,16.792,16.792,0,0,0,.907-1.887q.376-.909.723-1.976a3.975,3.975,0,0,1-1.215.392l-.207.033h.007c.067-.01.133-.02.2-.031s.135-.024.2-.039l-.2.036-.2.035A4.716,4.716,0,0,0,21.8,14.094a4.315,4.315,0,0,1-1.452.636q-.128.027-.257.046l-.065.009v0l.014,0,.048-.007q.118-.018.236-.044l.021,0-.024,0-.291.05a4.943,4.943,0,0,0,1.076-.6,4.287,4.287,0,0,0,.617-.586,4.062,4.062,0,0,0,.337-.465l.1-.156.115-.228a13.536,13.536,0,0,0,.552-1.276l.046-.132c.042-.127.078-.241.1-.34a3.349,3.349,0,0,0,.08-.354,1.1,1.1,0,0,1-.141.1,5.12,5.12,0,0,1-1.494.508l-.149.017v0l-3.4.373-.018.036-.115.237-.353.732-.066.139.066-.139q.178-.373.353-.732l.115-.237c.006-.014.014-.026.018-.039l-.126.014-.1-.2q-.288.57-.567,1.144l-.306.636q-.852,1.789-1.638,3.609-.838,1.941-1.621,3.9l.129-.324q.723-1.8,1.493-3.581.786-1.82,1.638-3.611l.306-.636q.266-.549.537-1.086l.03-.057q.43-.851.868-1.674c.312-.585.63-1.156.949-1.712s.661-1.126,1.008-1.679l.06-.1q.5-.8,1.015-1.531A25.1,25.1,0,0,1,23.827,1.91L23.74,2A22.9,22.9,0,0,0,21.678,4.8a38.633,38.633,0,0,0,4-.495,4.228,4.228,0,0,0-.385-3.213S24.627.01,23.745,0ZM21.267,11.26A4.137,4.137,0,0,0,23.13,9.8c.114-.165.229-.336.344-.514.35-.545.691-1.146,1-1.743a17.771,17.771,0,0,0,.756-1.663,8.64,8.64,0,0,0,.3-.9c.062-.236.111-.461.149-.674a38.675,38.675,0,0,1-4,.494q-.541.83-1.044,1.683C20.323,7,20,7.563,19.654,8.184q-.939,1.7-1.789,3.448l3.4-.373ZM26.709,3.3v.1h.234v.659h.108V3.4h.236V3.3H26.71Zm.694,0v.759h.1v-.6l.258.522h.069l.258-.522v.6h.1V3.3h-.131l-.261.53-.263-.53H27.4Zm-6.012,7.951-.153.024v0l.15-.024Zm-.135.018-.007,0Zm-4.11,1.863-.159.34-.2.431q-.714,1.554-1.382,3.128-.775,1.824-1.5,3.669-.333.85-.674,1.744l-.007.021q1.609-4.351,3.561-8.564l.2-.43Z" transform="translate(-7.813)"/>
</svg>
