<svg xmlns="http://www.w3.org/2000/svg" width="35.928" height="36" viewBox="0 0 35.928 36">
  <path id="Icon_zocial-github" data-name="Icon zocial-github" d="M0,17.784A17.329,17.329,0,0,1,1.44,10.8a17.388,17.388,0,0,1,9.54-9.54,17.656,17.656,0,0,1,13.968,0,17.539,17.539,0,0,1,9.54,9.54,17.656,17.656,0,0,1,0,13.968,17.668,17.668,0,0,1-9.54,9.612,17.656,17.656,0,0,1-13.968,0,17.515,17.515,0,0,1-9.54-9.612A17.329,17.329,0,0,1,0,17.784Zm2.808,0a14.643,14.643,0,0,0,3.024,9.072,16.184,16.184,0,0,0,7.812,5.58v-2.88a3.5,3.5,0,0,1,1.44-3.132,10.334,10.334,0,0,1-1.692-.252A8.506,8.506,0,0,1,10.26,25.02q-3.276-1.98-3.276-7.164a6.473,6.473,0,0,1,1.8-4.608,6.056,6.056,0,0,1,.18-4.608h.72a2.961,2.961,0,0,1,.9.18A12.379,12.379,0,0,1,13.716,10.4a16.981,16.981,0,0,1,4.32-.576,17.4,17.4,0,0,1,4.356.576,15.338,15.338,0,0,1,2.628-1.44,3.9,3.9,0,0,1,1.656-.36l.432.036a6.287,6.287,0,0,1,.18,4.608,6.473,6.473,0,0,1,1.8,4.608q0,4.032-1.98,6.084a7.239,7.239,0,0,1-2.844,1.8,12.38,12.38,0,0,1-3.276.684,3.583,3.583,0,0,1,1.476,3.132v2.88a16.3,16.3,0,0,0,7.668-5.652,14.671,14.671,0,0,0,2.952-9,15.172,15.172,0,0,0-1.188-5.9A15.317,15.317,0,0,0,17.964,2.628a15.31,15.31,0,0,0-5.9,1.224,15.828,15.828,0,0,0-4.824,3.2A16.7,16.7,0,0,0,4,11.88a15.172,15.172,0,0,0-1.188,5.9Z" transform="translate(0 0.18)"/>
</svg>
