<svg xmlns="http://www.w3.org/2000/svg" width="16.099" height="35.75" viewBox="0 0 16.099 35.75">
  <g id="gulp" transform="translate(-0.769 -0.158)">
    <path id="Path_34" data-name="Path 34" d="M46,440.071l.343-5.715.947-1.617a16.555,16.555,0,0,1-5.764.882,16.511,16.511,0,0,1-5.732-.866l1.061,1.764.375,5.552c0,.6,1.963,1.078,4.385,1.078S46,440.666,46,440.071" transform="translate(-32.815 -405.241)"/>
    <path id="Path_35" data-name="Path 35" d="M12.107,8.828l.72-2.846,3.987-4.2-1.051-.9L11.542,5.361l-.836,3.4c-.606-.02-1.238-.031-1.888-.031-4.445,0-8.049.507-8.049,1.131s3.6,1.131,8.049,1.131,8.049-.507,8.049-1.131c0-.46-1.954-.856-4.76-1.033" transform="translate(0 -0.688)"/>
    <path id="Path_36" data-name="Path 36" d="M150.077,145.906a3.414,3.414,0,0,1-.615.037c-.459,0-.785,0-.914-.121a.2.2,0,0,1-.054-.137.176.176,0,0,1,.131-.159l.069.109c-.03.01-.047.023-.048.036a1.951,1.951,0,0,0,.828.1c.359,0,.793-.034.793-.095,0-.018-.033-.036-.09-.049l.069-.108c.093.029.174.085.174.181,0,.164-.21.189-.345.208" transform="translate(-138.388 -136.172)"/>
    <path id="Path_37" data-name="Path 37" d="M238.592,1.107c.1-.116-.052-.412-.34-.661s-.6-.358-.7-.242.052.412.34.661.6.358.7.242" transform="translate(-221.786 0)"/>
    <path id="Path_38" data-name="Path 38" d="M13.831,163.69c-.094-.909,1.988-2.226,1.454-2.268-1.151.066-1.724,1.349-2.3,2.692-.212.492-.938,2.592-1.414,2.334s.617-1.985.924-3.01c-.354.259-1.65,1.267-1.984.323-.537.456-1.685.7-1.556-.5-.286.506-.927,1.213-1.7.919-1.011-.386.586-3.606.983-3.444s-.08.9-.205,1.181c-.275.627-.593,1.415-.38,1.577.363.276,1.353-1.046,1.375-1.075.185-.244.712-1.843,1.137-1.66s-1.06,2.295-.5,2.714c.112.085.57-.052.848-.354.18-.195.118-.627.719-2.06s1.136-3.217,1.548-3.081.072,1.052-.075,1.393c-.694,1.6-1.893,4.25-1.328,4.049a2.4,2.4,0,0,0,1.414-.86c.554-.648.528-1.716.9-1.693s.307.365.218.626c.363-.416,1.723-1.292,2.051-.424.389,1.027-1.945,2.51-1.363,2.435a3.523,3.523,0,0,0,1.879-1.185l1.08-9.71s-1.087.9-8,.9-7.888-.881-7.888-.881l.919,8.862c.488-1.387,1.647-4.193,3.474-4.1.831.043,1.94,1.643.99,1.7-.4.023-.443-.8-.919-.919a1.433,1.433,0,0,0-1.131.5c-.617.6-1.943,2.985-1.768,4.172.223,1.514,2.089-.526,2.4-1.132.222-.427.372-1.69.859-1.558s-.042,1.437-.395,2.59c-.4,1.295-.6,2.661-1.1,2.5s.312-1.829.283-2.121c-.466.43-1.326,1.52-2.425.981l.571,5.5s1.518,1.2,6.09,1.2,6.146-1.18,6.146-1.18l.709-6.374c-.58.565-2.416,1.568-2.534.437" transform="translate(-0.834 -142.821)"/>
  </g>
</svg>
