<svg xmlns="http://www.w3.org/2000/svg" width="29.731" height="36.003" viewBox="0 0 29.731 36.003">
  <path id="Icon_awesome-linux" data-name="Icon awesome-linux" d="M15.525,8.67c.07.035.127.12.211.12s.2-.028.2-.105c.014-.1-.134-.162-.225-.2a.465.465,0,0,0-.387-.007c-.028.014-.056.049-.042.077.021.091.162.077.239.12Zm-1.54.12c.084,0,.141-.084.211-.12s.218-.028.246-.113c.014-.028-.014-.063-.042-.077a.465.465,0,0,0-.387.007c-.091.042-.239.105-.225.2.007.07.127.105.2.1Zm15.546,19.6a3.426,3.426,0,0,1-.506-1.385,2.724,2.724,0,0,0-.738-1.575,1.9,1.9,0,0,0-.281-.2,1.56,1.56,0,0,0-.288-.141,8.142,8.142,0,0,0-.26-5.562,18.759,18.759,0,0,0-3.27-5.231c-1.2-1.512-2.37-2.946-2.348-5.063C21.874,6,22.2.007,16.509,0c-7.2-.014-5.4,7.27-5.477,9.506A8.154,8.154,0,0,1,9.45,14.055a22.453,22.453,0,0,0-4.085,6.8A8.083,8.083,0,0,0,4.929,24.6c-.457.408-.8,1.034-1.167,1.42a3.019,3.019,0,0,1-1.2.584,2.176,2.176,0,0,0-1.3,1.02,1.8,1.8,0,0,0-.2.872,5.531,5.531,0,0,0,.084.83,3.641,3.641,0,0,1,.056,1.462,2.846,2.846,0,0,0-.155,2.229,1.888,1.888,0,0,0,1.413.865c1.216.253,2.869.19,4.17.879a5.891,5.891,0,0,0,3.93.731,2.548,2.548,0,0,0,1.821-1.42c.879-.007,1.849-.38,3.4-.464,1.048-.084,2.362.373,3.874.288a2.233,2.233,0,0,0,.176.471v.007a2.82,2.82,0,0,0,2.834,1.617,5.124,5.124,0,0,0,3.4-1.962c.956-1.153,2.531-1.631,3.579-2.264a1.7,1.7,0,0,0,.977-1.287A3.175,3.175,0,0,0,29.531,28.392ZM15.729,6.138a1.616,1.616,0,0,1,3.094-.028,2.8,2.8,0,0,1-.3,2.841,8.7,8.7,0,0,0-.886-.345,1.258,1.258,0,0,0,.274-.323c.337-.83-.014-1.9-.64-1.92-.513-.035-.977.759-.83,1.617a5.009,5.009,0,0,0-.914-.309,2.8,2.8,0,0,1,.2-1.533ZM12.867,5.33c.71,0,1.462,1,1.343,2.355a2.529,2.529,0,0,0-.717.323c.084-.626-.232-1.413-.675-1.378-.591.049-.689,1.491-.127,1.976.07.056.134-.014-.415.387-1.1-1.027-.738-3.663.591-3.663ZM11.911,9.6c.436-.323.956-.7.991-.738a2.806,2.806,0,0,1,1.962-1,3.383,3.383,0,0,1,1.821.626,11.778,11.778,0,0,0,1.589.654c.591.246.963.682.738,1.28a2.445,2.445,0,0,1-1.6,1.273c-.78.253-1.392,1.125-2.686,1.048a1.958,1.958,0,0,1-.675-.148c-.562-.246-.858-.731-1.406-1.055a2.046,2.046,0,0,1-1.034-1.076.757.757,0,0,1,.3-.865Zm.232,23.484c-.19,2.468-3.087,2.419-5.295,1.266-2.1-1.111-4.823-.457-5.379-1.54a2.453,2.453,0,0,1,.183-1.856v-.014a3.777,3.777,0,0,0-.042-1.68,2.367,2.367,0,0,1,.063-1.406,1.609,1.609,0,0,1,1.041-.795,3.161,3.161,0,0,0,1.378-.7c.387-.4.668-.907,1.005-1.266a1.272,1.272,0,0,1,1.245-.485,2.458,2.458,0,0,1,1.54,1.125l1.378,2.5c.668,1.4,3.03,3.4,2.883,4.845Zm-.1-1.821a15.092,15.092,0,0,0-1.012-1.378,1.145,1.145,0,0,0,1.174-.626,1.975,1.975,0,0,0-.52-1.751,10.335,10.335,0,0,0-2.693-2.285,3.8,3.8,0,0,1-1.73-2.1,4.761,4.761,0,0,1-.021-2.475,14.623,14.623,0,0,1,1.912-4.163c.162-.12.056.225-.612,1.462-.6,1.132-1.716,3.748-.183,5.794a12.143,12.143,0,0,1,.97-4.324c.844-1.927,2.623-5.266,2.763-7.924.077.056.323.225.436.288a8.173,8.173,0,0,1,.886.724,2.575,2.575,0,0,0,2.981.084,7.755,7.755,0,0,1,1.118-.633A3,3,0,0,0,19.083,10.9,36.317,36.317,0,0,0,21.7,17.627a15.823,15.823,0,0,1,1.659,4.542,2.8,2.8,0,0,1,.766.1c.97-2.51-.823-5.217-1.638-5.97-.33-.323-.345-.464-.183-.457a8.676,8.676,0,0,1,2.475,4.148,5.312,5.312,0,0,1,.028,2.51c1.153.478,2.524,1.259,2.159,2.447-.155-.007-.225,0-.3,0,.225-.71-.274-1.237-1.6-1.835-1.378-.6-2.531-.6-2.693.879a2.46,2.46,0,0,0-1.5,1.92,15.521,15.521,0,0,0-.309,2.805,11.011,11.011,0,0,1-.478,2.039c-2.257,1.61-5.393,2.313-8.037.506Zm18.1-.809c-.063,1.181-2.9,1.4-4.444,3.27a4.7,4.7,0,0,1-3.066,1.793,2.3,2.3,0,0,1-2.37-1.357,3.9,3.9,0,0,1,.077-2.552,17.426,17.426,0,0,0,.7-2.855,15.824,15.824,0,0,1,.3-2.721,2.125,2.125,0,0,1,.963-1.484c.021-.014.049-.021.07-.035a2.155,2.155,0,0,0,1.322,2.074,3.3,3.3,0,0,0,2.7-1.146,1.99,1.99,0,0,1,1.589.359c.7.6.5,2.13,1.2,2.925.745.816.984,1.371.963,1.73Zm-17.958-20c.141.134.33.316.563.5a3.11,3.11,0,0,0,1.92.745,4.984,4.984,0,0,0,2.236-.759,6.252,6.252,0,0,0,1.041-.731c.274-.239.415-.443.218-.464s-.183.183-.422.359c-.309.225-.682.52-.977.689a4.791,4.791,0,0,1-2.1.717,2.819,2.819,0,0,1-1.751-.682c-.218-.176-.4-.352-.541-.485-.105-.1-.134-.323-.3-.345-.1-.007-.127.26.12.457Z" transform="translate(-0.892)"/>
</svg>
