<svg xmlns="http://www.w3.org/2000/svg" width="30.467" height="31.5" viewBox="0 0 30.467 31.5">
  <path id="Icon_awesome-typo3" data-name="Icon awesome-typo3" d="M12.565,5.512c0-1.737.38-2.278.977-2.77-4.887.6-10.5,2.391-12.4,4.669A4.69,4.69,0,0,0,.492,10.02C.492,17.3,8,33.75,13.437,33.75c2.552,0,6.841-4.184,10.315-9.773a3.617,3.617,0,0,1-1.3.162c-4.022,0-9.886-13.957-9.886-18.626ZM21.2,2.25c-2.116,0-2.932.38-2.932,2.552,0,4.669,3.783,13.957,7.151,13.957,1.849,0,5.541-7.01,5.541-12.818C30.959,3.066,26.248,2.25,21.2,2.25Z" transform="translate(-0.492 -2.25)"/>
</svg>
