<svg xmlns="http://www.w3.org/2000/svg" width="34.875" height="34.875" viewBox="0 0 34.875 34.875">
  <path id="Icon_awesome-wordpress" data-name="Icon awesome-wordpress" d="M4.338,11.911l7.137,19.547A14.962,14.962,0,0,1,4.338,11.911ZM28.1,17.248a7.888,7.888,0,0,0-1.23-4.127A7,7,0,0,1,25.4,9.612a2.589,2.589,0,0,1,2.51-2.658c.063,0,.127.007.2.014A14.957,14.957,0,0,0,5.5,9.78c.352.014.682.021.963.021,1.561,0,3.987-.19,3.987-.19a.617.617,0,0,1,.1,1.23s-.809.091-1.709.141l5.449,16.2,3.277-9.816-2.327-6.384c-.809-.049-1.568-.141-1.568-.141a.617.617,0,0,1,.091-1.23s2.468.19,3.937.19c1.561,0,3.987-.19,3.987-.19a.617.617,0,0,1,.1,1.23s-.809.091-1.709.141l5.407,16.08,1.491-4.985A18.464,18.464,0,0,0,28.1,17.248Zm-9.837,2.06L13.774,32.351a14.9,14.9,0,0,0,9.19-.239,1.121,1.121,0,0,1-.105-.2l-4.6-12.6Zm12.867-8.487a11.654,11.654,0,0,1,.1,1.54,14.053,14.053,0,0,1-1.139,5.358L25.516,30.93a14.973,14.973,0,0,0,5.611-20.109ZM35.438,18A17.438,17.438,0,1,1,18,.563,17.457,17.457,0,0,1,35.438,18Zm-.8,0A16.636,16.636,0,1,0,18,34.636,16.656,16.656,0,0,0,34.636,18Z" transform="translate(-0.563 -0.563)"/>
</svg>
