<svg xmlns="http://www.w3.org/2000/svg" width="228" height="257.163" viewBox="0 0 228 257.163">
  <path id="Icon_awesome-node-js" data-name="Icon awesome-node-js" d="M114,257.448a19.988,19.988,0,0,1-9.9-2.654L72.613,236.168c-4.695-2.654-2.4-3.572-.868-4.082a62.02,62.02,0,0,0,14.237-6.481,2.3,2.3,0,0,1,2.347.2l24.188,14.339a2.954,2.954,0,0,0,2.909,0l94.251-54.4a3.021,3.021,0,0,0,1.429-2.551V74.405a3.04,3.04,0,0,0-1.48-2.6l-94.2-54.346a2.955,2.955,0,0,0-2.909,0l-94.149,54.4a2.978,2.978,0,0,0-1.48,2.6V183.2a2.816,2.816,0,0,0,1.48,2.5L44.19,200.6c14.033,6.991,22.606-1.225,22.606-9.542V83.692a2.7,2.7,0,0,1,2.756-2.7H81.492a2.733,2.733,0,0,1,2.756,2.7V191.109c0,18.677-10.206,29.393-27.913,29.393-5.46,0-9.747,0-21.688-5.919l-24.7-14.237a19.843,19.843,0,0,1-9.9-17.2V74.405a19.9,19.9,0,0,1,9.9-17.2L104.1,2.811a20.662,20.662,0,0,1,19.8,0l94.251,54.448a19.843,19.843,0,0,1,9.9,17.2V183.2a19.967,19.967,0,0,1-9.9,17.2l-94.251,54.4A19.846,19.846,0,0,1,114,257.448Zm76.085-107.213c0-20.361-13.778-25.77-42.712-29.6-29.291-3.878-32.251-5.868-32.251-12.706,0-5.664,2.5-13.217,24.188-13.217,19.34,0,26.484,4.184,29.444,17.248a2.732,2.732,0,0,0,2.654,2.143h12.247a2.664,2.664,0,0,0,1.99-.868,2.84,2.84,0,0,0,.714-2.092c-1.888-22.5-16.84-32.965-47.049-32.965-26.893,0-42.916,11.329-42.916,30.363,0,20.616,15.972,26.331,41.742,28.883,30.873,3.011,33.271,7.552,33.271,13.625,0,10.512-8.471,15-28.321,15-24.953,0-30.414-6.277-32.251-18.677a2.7,2.7,0,0,0-2.7-2.3h-12.2a2.69,2.69,0,0,0-2.7,2.7c0,15.87,8.624,34.8,49.907,34.8,29.8-.051,46.947-11.839,46.947-32.353Z" transform="translate(-0.049 -0.285)" fill="#ff4a57" opacity="0.42"/>
</svg>
