<svg xmlns="http://www.w3.org/2000/svg" width="198" height="198" viewBox="0 0 198 198">
  <g id="Icon_ionic-logo-python" data-name="Icon ionic-logo-python" transform="translate(-4.5 -4.5)">
    <path id="Path_12" data-name="Path 12" d="M71.253,99.919a33.678,33.678,0,0,1,5.974-.537l-1.61-.008h53.534a24.813,24.813,0,0,0,6.656-.9A23.2,23.2,0,0,0,153,75.957V30.982c0-12.8-10.905-22.421-23.868-24.547A195.135,195.135,0,0,0,100.727,4.5,137.719,137.719,0,0,0,77.9,6.435C57.683,9.953,54,17.353,54,30.982V45.75h49.5V54H37.923C19.552,54,4.645,75.95,4.5,103.109c0,.13,0,.26,0,.391a71.813,71.813,0,0,0,1.384,14.13C9.99,138.083,22.779,153,37.923,153H45.75V129.315C45.75,115.482,56.138,102.64,71.253,99.919ZM76.51,36.985a9,9,0,1,1,8.971-8.973A8.969,8.969,0,0,1,76.51,36.985Z" transform="translate(0 0)" fill="#00ffc4"/>
    <path id="Path_13" data-name="Path 13" d="M157.662,43.5c-4.729-18.832-16.973-32.249-31.335-32.249H118.5V32.222c0,17.487-11.491,30.151-25.518,32.32a27.816,27.816,0,0,1-4.28.333H35.15a26.509,26.509,0,0,0-6.728.862C18.562,68.324,11.25,76.528,11.25,87.169v44.976c0,12.8,12.879,20.329,25.514,24a87.449,87.449,0,0,0,49.689,0c12.016-3.434,23.8-10.375,23.8-24V118.5H60.75v-8.25h65.577c13.014,0,24.29-11.016,29.81-27.1a69.248,69.248,0,0,0,3.612-22.4A70.981,70.981,0,0,0,157.662,43.5ZM87.494,126.142a9,9,0,1,1-8.971,8.972A8.968,8.968,0,0,1,87.494,126.142Z" transform="translate(42.75 42.75)" fill="#00ffc4"/>
  </g>
</svg>
