<svg xmlns="http://www.w3.org/2000/svg" width="269" height="235.387" viewBox="0 0 269 235.387">
  <path id="Icon_awesome-react" data-name="Icon awesome-react" d="M219.718,78.531q-4.256-1.419-8.511-2.679c.473-1.944.893-3.888,1.313-5.832,6.462-31.313,2.207-56.479-12.136-64.781-13.818-7.933-36.357.315-59.159,20.175-2.259,1.944-4.466,3.993-6.567,6.042-1.419-1.366-2.89-2.732-4.361-4.046C106.392,6.185,82.434-2.747,68.091,5.607,54.325,13.593,50.227,37.288,56.007,66.92c.578,2.942,1.208,5.832,1.944,8.774-3.362.946-6.672,2-9.772,3.1C20.122,88.513,0,103.855,0,119.722c0,16.392,21.436,32.837,50.6,42.819,2.364.788,4.729,1.576,7.145,2.259-.788,3.152-1.471,6.252-2.1,9.457-5.517,29.159-1.208,52.276,12.557,60.21,14.186,8.2,38.038-.21,61.261-20.543,1.839-1.629,3.678-3.31,5.517-5.1,2.312,2.259,4.729,4.413,7.145,6.515,22.487,19.334,44.711,27.163,58.423,19.229,14.186-8.2,18.809-33.047,12.82-63.31q-.709-3.468-1.576-7.093c1.681-.473,3.31-1,4.939-1.524C247.039,152.611,269,136.377,269,119.722c0-15.919-20.7-31.366-49.282-41.191ZM148.633,33.925c19.545-17.023,37.776-23.7,46.077-18.914,8.879,5.1,12.294,25.692,6.725,52.749-.368,1.786-.736,3.52-1.208,5.254a268.96,268.96,0,0,0-35.359-5.569,265.452,265.452,0,0,0-22.382-27.9C144.535,37.6,146.531,35.764,148.633,33.925ZM87.845,146.989c2.679,4.571,5.412,9.142,8.3,13.608a237.911,237.911,0,0,1-24.378-3.94,245.429,245.429,0,0,1,8.564-23.38c2.417,4.623,4.886,9.194,7.513,13.713Zm-15.919-63.2c7.566-1.681,15.6-3.047,23.958-4.1-2.785,4.361-5.517,8.827-8.091,13.345-2.574,4.466-5.1,9.037-7.461,13.66C77.022,98.864,74.238,91.193,71.926,83.785Zm14.4,36.2c3.468-7.25,7.25-14.343,11.243-21.331s8.3-13.765,12.82-20.438c7.881-.578,15.919-.893,24.115-.893s16.287.315,24.115.893q6.7,9.93,12.767,20.333t11.4,21.226q-5.28,10.876-11.348,21.436c-3.993,6.988-8.249,13.765-12.714,20.49-7.828.578-15.972.841-24.221.841s-16.235-.263-23.958-.736q-6.856-10.009-12.925-20.49c-4.046-6.988-7.776-14.08-11.3-21.331Zm94.886,26.9c2.68-4.623,5.2-9.3,7.671-14.028a243.905,243.905,0,0,1,8.879,23.275,230.774,230.774,0,0,1-24.693,4.2C175.9,155.921,178.58,151.4,181.207,146.884Zm7.566-40.192c-2.469-4.623-4.991-9.247-7.618-13.765q-3.862-6.7-8.038-13.24a241.77,241.77,0,0,1,24.115,4.2,232.517,232.517,0,0,1-8.459,22.8ZM134.605,47.586a230.71,230.71,0,0,1,15.552,18.809c-10.4-.473-20.858-.473-31.261,0C124.045,59.617,129.351,53.312,134.605,47.586ZM73.66,15.379c8.827-5.149,28.424,2.207,49.071,20.49,1.313,1.156,2.627,2.417,3.993,3.678a266.929,266.929,0,0,0-22.539,27.9,276.949,276.949,0,0,0-35.306,5.464C68.2,70.23,67.618,67.5,67.04,64.766,62.1,39.337,65.359,20.16,73.66,15.379ZM60.788,153.872c-2.207-.63-4.361-1.313-6.515-2.049-11.191-3.52-23.905-9.089-33.1-16.392A23.575,23.575,0,0,1,11.3,119.722c0-9.615,16.6-21.909,40.56-30.263,2.995-1.051,6.042-2,9.089-2.89a279.373,279.373,0,0,0,12.872,33.415,287.192,287.192,0,0,0-13.03,33.888Zm61.261,51.488a96.163,96.163,0,0,1-29.632,18.546,23.254,23.254,0,0,1-18.546.683c-8.354-4.834-11.821-23.38-7.093-48.336.578-2.942,1.208-5.884,1.944-8.774a262.84,262.84,0,0,0,35.674,5.149,277.257,277.257,0,0,0,22.7,28.056C125.411,202.313,123.729,203.889,122.048,205.36Zm12.872-12.767C129.561,186.814,124.2,180.4,119,173.522c5.044.21,10.245.315,15.5.315,5.412,0,10.718-.105,15.972-.368a226.579,226.579,0,0,1-15.552,19.124Zm68.669,15.762A23.35,23.35,0,0,1,194.92,224.8c-8.354,4.834-26.164-1.471-45.394-17.968-2.207-1.891-4.413-3.94-6.672-6.042a259.9,259.9,0,0,0,22.172-28.161,259,259,0,0,0,35.832-5.517c.525,2.154,1,4.308,1.419,6.41A95.774,95.774,0,0,1,203.589,208.355Zm9.562-56.48c-1.471.473-2.942.946-4.466,1.366a266.9,266.9,0,0,0-13.4-33.52A265.564,265.564,0,0,0,208.16,86.675c2.732.788,5.359,1.629,7.881,2.469,24.483,8.406,41.663,20.911,41.663,30.473,0,10.3-18.336,23.59-44.553,32.259ZM134.5,143.995a24.063,24.063,0,1,0-24.063-24.063A24.059,24.059,0,0,0,134.5,143.995Z" transform="translate(0 -2.251)" fill="#00ffc4" opacity="0.45"/>
</svg>
